<svg height="512pt" viewBox="0 0 512.04486 512" width="512pt" xmlns="http://www.w3.org/2000/svg"><path d="m500.539062 91.949219c-1.644531-3.992188-5.546874-6.59375-9.859374-6.59375h-32c-2.835938 0-5.542969 1.132812-7.550782 3.113281l-42.667968 42.667969c-1.980469 2.003906-3.113282 4.714843-3.113282 7.550781v32c0 4.3125 2.601563 8.214844 6.59375 9.859375 1.300782.53125 2.707032.808594 4.074219.808594 2.773437 0 5.503906-1.085938 7.550781-3.113281l74.667969-74.667969c3.027344-3.050781 3.945313-7.660157 2.304687-11.625zm0 0" fill="#f44336"/><path d="m405.347656 309.355469c0 111.929687-90.738281 202.667969-202.667968 202.667969-111.929688 0-202.664063-90.738282-202.664063-202.667969 0-111.929688 90.734375-202.667969 202.664063-202.667969 111.929687 0 202.667968 90.738281 202.667968 202.667969zm0 0" fill="#607d8b"/><path d="m341.347656 288.023438c0 29.453124-23.878906 53.332031-53.332031 53.332031-29.457031 0-53.335937-23.878907-53.335937-53.332031 0-29.457032 23.878906-53.335938 53.335937-53.335938 29.453125 0 53.332031 23.878906 53.332031 53.335938zm0 0" fill="#cfd8dc"/><path d="m504.71875 128.554688-32-10.664063c-3.839844-1.238281-8.042969-.277344-10.921875 2.578125l-21.335937 21.335938c-2.855469 2.859374-3.859376 7.082031-2.578126 10.921874l10.664063 32c1.175781 3.5 4.074219 6.164063 7.660156 6.996094.832031.214844 1.664063.300782 2.472657.300782 2.796874 0 5.527343-1.109376 7.554687-3.117188l42.664063-42.664062c2.625-2.605469 3.691406-6.402344 2.839843-10.007813-.855469-3.582031-3.519531-6.503906-7.019531-7.679687zm0 0" fill="#607d8b"/><path d="m478.628906 122.753906c0-.023437-.023437-.042968-.023437-.066406-1.191407-2.21875-8.914063-17.664062-17.429688-34.730469-17.214843-34.453125-50.238281-58.28125-88.382812-63.742187l-19.285157-2.753906c-3.261718-.382813-6.65625.640624-9.046874 3.03125-2.367188 2.367187-3.496094 5.738281-3.027344 9.042968l2.75 19.328125c5.464844 38.101563 29.25 71.148438 63.683594 88.386719l35.347656 17.664062c1.558594.722657 3.179687 1.109376 4.800781 1.109376 2.773437 0 5.503906-1.089844 7.550781-3.117188l21.332032-21.332031c3.394531-3.414063 4.097656-8.640625 1.730468-12.820313zm0 0" fill="#cfd8dc"/><path d="m202.679688 512.023438c-111.742188 0-202.664063-90.921876-202.664063-202.667969 0-111.742188 90.921875-202.667969 202.664063-202.667969 111.746093 0 202.667968 90.925781 202.667968 202.667969 0 111.746093-90.921875 202.667969-202.667968 202.667969zm0-384c-99.988282 0-181.332032 81.34375-181.332032 181.332031s81.34375 181.332031 181.332032 181.332031c99.992187 0 181.335937-81.34375 181.335937-181.332031s-81.34375-181.332031-181.335937-181.332031zm0 0"/><path d="m234.679688 224.023438c0 5.890624-4.773438 10.664062-10.664063 10.664062s-10.667969-4.773438-10.667969-10.664062c0-5.890626 4.777344-10.667969 10.667969-10.667969s10.664063 4.777343 10.664063 10.667969zm0 0"/><path d="m288.015625 341.355469c-29.398437 0-53.335937-23.914063-53.335937-53.332031 0-29.398438 23.9375-53.335938 53.335937-53.335938s53.332031 23.9375 53.332031 53.335938c0 29.417968-23.933594 53.332031-53.332031 53.332031zm0-85.332031c-17.644531 0-32 14.355468-32 32 0 17.640624 14.355469 32 32 32 17.640625 0 32-14.359376 32-32 0-17.644532-14.359375-32-32-32zm0 0"/><path d="m10.679688 91.394531c-3.050782 0-6.058594-1.304687-8.167969-3.796875-3.796875-4.503906-3.222657-11.246094 1.277343-15.042968 10.304688-8.640626 21.269532-16.703126 32.640626-23.976563 4.949218-3.179687 11.5625-1.730469 14.742187 3.242187 3.15625 4.96875 1.707031 11.5625-3.242187 14.742188-10.582032 6.761719-20.800782 14.269531-30.378907 22.335938-1.984375 1.683593-4.4375 2.496093-6.871093 2.496093zm68.949218-43.519531c-4.050781 0-7.933594-2.328125-9.726562-6.253906-2.410156-5.375-.042969-11.6875 5.3125-14.121094 13.441406-6.101562 27.371094-11.242188 41.429687-15.316406 5.695313-1.644532 11.582031 1.621094 13.226563 7.273437 1.640625 5.652344-1.621094 11.585938-7.273438 13.207031-13.101562 3.796876-26.070312 8.59375-38.570312 14.269532-1.410156.640625-2.925782.941406-4.398438.941406zm208.363282-14.167969c-1 0-2.023438-.148437-3.050782-.449219-13.054687-3.878906-26.558594-6.867187-40.125-8.851562-5.824218-.851562-9.859375-6.273438-9.003906-12.097656.851562-5.820313 6.230469-9.960938 12.09375-9 14.59375 2.132812 29.101562 5.332031 43.117188 9.515625 5.652343 1.683593 8.875 7.613281 7.167968 13.265625-1.367187 4.632812-5.609375 7.617187-10.199218 7.617187zm-126.699219-9.492187c-5.246094 0-9.8125-3.863282-10.558594-9.195313-.808594-5.84375 3.265625-11.222656 9.109375-12.03125 14.058594-1.984375 28.480469-2.9648435 42.835938-2.9648435 5.890624 0 11.246093 4.7773435 11.246093 10.6640625 0 5.890625-4.183593 10.667969-10.070312 10.667969h-1.175781c-13.375 0-26.792969.917969-39.914063 2.753906-.488281.0625-.980469.105469-1.472656.105469zm0 0"/><path d="m431.289062 512.023438c-2.410156 0-4.863281-.8125-6.847656-2.496094-4.5-3.796875-5.097656-10.519532-1.300781-15.039063 8.789063-10.433593 16.917969-21.632812 24.148437-33.261719 3.113282-4.96875 9.6875-6.527343 14.699219-3.414062 4.992188 3.117188 6.527344 9.707031 3.414063 14.699219-7.765625 12.460937-16.492188 24.472656-25.941406 35.714843-2.113282 2.496094-5.121094 3.796876-8.171876 3.796876zm44.949219-72.171876c-1.429687 0-2.878906-.296874-4.289062-.894531-5.394531-2.371093-7.847657-8.664062-5.460938-14.058593 5.484375-12.503907 10.132813-25.515626 13.78125-38.699219 1.578125-5.695313 7.445313-9.003907 13.144531-7.425781 5.671876 1.558593 9 7.445312 7.421876 13.121093-3.925782 14.164063-8.917969 28.136719-14.828126 41.578125-1.746093 4.011719-5.652343 6.378906-9.769531 6.378906zm22.742188-81.941406c-.449219 0-.894531-.019531-1.34375-.085937-5.847657-.746094-9.984375-6.078125-9.238281-11.925781 1.515624-12.050782 2.28125-24.339844 2.28125-36.542969l-.019532-4.542969c-.0625-5.890625 4.628906-10.730469 10.515625-10.816406h.152344c5.824219 0 10.578125 4.691406 10.664063 10.515625l.023437 4.84375c0 13.097656-.832031 26.28125-2.476563 39.230469-.679687 5.398437-5.269531 9.324218-10.558593 9.324218zm-1.34375-85.035156c-5.164063 0-9.6875-3.734375-10.519531-9-2.152344-13.527344-5.289063-27.011719-9.34375-40.023438-1.746094-5.632812 1.386718-11.605468 7.019531-13.355468 5.675781-1.707032 11.605469 1.410156 13.355469 7.019531 4.351562 13.996094 7.722656 28.457031 10.027343 43.03125.917969 5.800781-3.050781 11.285156-8.875 12.199219-.554687.085937-1.109375.128906-1.664062.128906zm0 0"/><path d="m458.679688 192.023438c-.808594 0-1.640626-.085938-2.453126-.277344-3.605468-.855469-6.503906-3.5-7.65625-7.019532l-10.667968-32c-1.28125-3.839843-.277344-8.0625 2.582031-10.921874l21.332031-21.335938c2.859375-2.855469 7.082032-3.859375 10.921875-2.578125l32 10.664063c3.523438 1.175781 6.167969 4.054687 7.019531 7.660156.855469 3.582031-.234374 7.382812-2.835937 9.984375l-42.667969 42.664062c-2.046875 2.050781-4.777344 3.160157-7.574218 3.160157zm1.539062-39.789063 3.113281 9.367187 18.238281-18.242187-9.363281-3.113281zm0 0"/><path d="m448.015625 160.023438c-1.621094 0-3.242187-.363282-4.78125-1.132813l-35.347656-17.683594c-34.433594-17.214843-58.21875-50.242187-63.679688-88.34375l-2.753906-19.347656c-.46875-3.328125.640625-6.675781 3.03125-9.046875 2.367187-2.34375 5.675781-3.476562 9.046875-3.027344l19.261719 2.75c38.144531 5.464844 71.167969 29.292969 88.382812 63.746094 8.515625 17.066406 16.238281 32.492188 17.410157 34.730469 0 .019531.019531.042969.042968.0625 2.367188 4.160156 1.664063 9.410156-1.75 12.800781l-21.332031 21.332031c-2.050781 2.09375-4.78125 3.160157-7.53125 3.160157zm-83.433594-115.4375.746094 5.269531c4.4375 31.191406 23.933594 58.199219 52.09375 72.277343l28.480469 14.230469 10.582031-10.582031c-3.390625-6.25-7.914063-15.316406-14.398437-28.328125-14.082032-28.183594-41.109376-47.679687-72.320313-52.140625zm0 0"/><path d="m469.347656 128.023438c-2.730468 0-5.460937-1.046876-7.550781-3.117188-4.160156-4.160156-4.160156-10.921875 0-15.082031l3.136719-3.136719h-6.253906c-5.886719 0-10.664063-4.777344-10.664063-10.664062 0-5.890626 4.777344-10.667969 10.664063-10.667969h32c4.3125 0 8.214843 2.601562 9.859374 6.59375 1.664063 3.988281.746094 8.574219-2.304687 11.625l-21.335937 21.332031c-2.089844 2.070312-4.820313 3.117188-7.550782 3.117188zm0 0"/><path d="m416.015625 181.355469c-1.367187 0-2.753906-.253907-4.074219-.808594-3.992187-1.644531-6.59375-5.546875-6.59375-9.859375v-32c0-5.886719 4.777344-10.664062 10.667969-10.664062 5.886719 0 10.664063 4.777343 10.664063 10.664062v6.253906l3.117187-3.117187c4.160156-4.160157 10.921875-4.160157 15.082031 0 4.160156 4.160156 4.160156 10.921875 0 15.082031l-21.332031 21.335938c-2.027344 2.027343-4.757813 3.113281-7.53125 3.113281zm0 0"/></svg>